<svg xmlns="http://www.w3.org/2000/svg" viewBox="0 0 664.48 435.7"><g id="OBJECTS"><path d="M598.6,44.52a89.86,89.86,0,0,0-43-5.78c-33.15,4-60.55,26.95-84.83,49.88s-49.08,47.7-81.17,56.95c-62.3,18-126.52-28.41-191.11-22.72-57,5-106.29,56-109.38,113.13-.83,15.21,1.24,30.57-.86,45.66-1.62,11.59-5.66,22.72-7.58,34.27-6.08,36.6,11.6,76,43,95.84,33.66,21.24,76.79,19.33,116,12.31s78.57-18.44,118.1-13.74c42.08,5,80.65,28,122.89,31.41,25.51,2.06,51.87-3.43,73.47-17.16s38.06-35.91,43.16-61c4.73-23.29-.19-47.8,5.11-71,6.35-27.72,26.32-49.89,43-73,35.45-49.14,32.57-110.49-12.54-153.41A104.78,104.78,0,0,0,598.6,44.52Z" transform="translate(-51.01 -26.14)" style="fill:#e8b8b4;opacity:0.37"/><rect x="556.34" y="52.86" width="115.74" height="11.9" rx="5.84" transform="translate(1.87 288.85) rotate(-30)" style="fill:none;stroke:#2d1a14;stroke-linecap:round;stroke-linejoin:round;stroke-width:1.4604000000000001px"/><rect x="74.61" y="360.02" width="115.74" height="11.9" rx="5.84" transform="translate(-216.24 89.13) rotate(-30)" style="fill:none;stroke:#2d1a14;stroke-linecap:round;stroke-linejoin:round;stroke-width:1.4604000000000001px"/><line x1="500.67" y1="90.62" x2="602.91" y2="30.25" style="fill:none;stroke:#2d1a14;stroke-linecap:round;stroke-linejoin:round;stroke-width:1.4604000000000001px"/><line x1="0.73" y1="350.03" x2="63.04" y2="314" style="fill:none;stroke:#2d1a14;stroke-linecap:round;stroke-linejoin:round;stroke-width:1.4604000000000001px"/><circle cx="530.92" cy="141.39" r="48.29" style="fill:#241624"/><rect x="155.7" y="273.67" width="92.15" height="135.35" rx="34.21" transform="translate(352.53 656.55) rotate(180)" style="fill:#fbc999"/><path d="M267.05,457.14c-6.1-46.12-11.44-85.93-12.67-93.47l-45.72,11.58c.7,6.84,6.83,41,14.42,81.89Z" transform="translate(-51.01 -26.14)" style="fill:#fbc999"/><path d="M198.15,457.14c1.48-49.31,2.56-92.78,2.43-101.49l-46.76-6.16c-.41,9.35.33,55.7,1.31,107.65Z" transform="translate(-51.01 -26.14)" style="fill:#fbc999"/><path d="M227.09,193.12a206.92,206.92,0,0,0-10.81,57.68c-.08,1.81,2.73,1.8,2.81,0a204.28,204.28,0,0,1,10.71-56.94c.59-1.71-2.13-2.45-2.71-.74Z" transform="translate(-51.01 -26.14)" style="fill:#7f68ba"/><path d="M216.38,261.15q-.65,11.67-1.3,23.36c-.11,1.81,2.71,1.8,2.81,0q.65-11.68,1.3-23.36c.1-1.81-2.71-1.81-2.81,0Z" transform="translate(-51.01 -26.14)" style="fill:#7f68ba"/><path d="M238,169.35A81.83,81.83,0,0,0,235.13,182c-.9,6.41-.86,13.52,3.11,18.64a21.55,21.55,0,0,1-12.5,6.83,20.84,20.84,0,0,1-13.7-2.89c-1.1-.69-2.14-1.47-3.17-2.26l-3.81-2.89c7-9.49,13.34-20.16,13.07-32,3-.21,7.31-1,10.32-1.2a17,17,0,0,1,3.91,0C234.41,166.59,235.88,169.47,238,169.35Z" transform="translate(-51.01 -26.14)" style="fill:#f3725f"/><path d="M213.61,185.86a22.15,22.15,0,0,0,10.12-.33c4.81-1.5,8.09-5.64,10.3-10a44.8,44.8,0,0,0,2.67-6.48c-1.47-.72-2.73-2.55-4.34-2.8a17,17,0,0,0-3.91,0c-3,.21-7.31,1-10.32,1.2A39.58,39.58,0,0,1,213.61,185.86Z" transform="translate(-51.01 -26.14)" style="fill:#241624"/><path d="M277.82,280.22q-.65,2.53-1.34,5.06c-2,7.36-4.13,14.67-6.27,22l-1.11,3.8c-.06.19-.11.38-.17.57h0q-2.24,7.62-4.35,15.26c-.32,1.17-.63,2.34-.95,3.51-1.77,6.65-3.4,13.34-4.76,20.09-.79,3.93-1.49,7.89-2.07,11.86-.13.88-.21,1.79-.3,2.68-.3,2.65-.78,5.18-3.41,6.66a9.53,9.53,0,0,1-1.88.78,13.56,13.56,0,0,1-2.09.43c-.42.07-.85.11-1.29.14-4.55.31-9.91-.76-13.69-1l-21.8-1.28-8.31-.49h0c-.67-.05-1.36-.08-2-.12h0L182.52,369c-4.69-.28-9.46-.82-14.16-.83-3.5,0-7.76.42-11.22-.84h0a9.22,9.22,0,0,1-2.45-1.32l0,0a6.58,6.58,0,0,1-1.64-1.73,5.33,5.33,0,0,1-.35-.72c-1.38-3.73-.6-9.27-.62-13.18,0-5.63-.14-11.26-.27-16.89-.26-11.33-.63-22.66-.7-34-.11-17.64.51-35.41,3.4-52.84h0l.27-1.63c.32-1.82.66-3.62,1-5.42q.76-3.76,1.7-7.5a86.09,86.09,0,0,1,15.34-31.6c.49-.64,1-1.27,1.51-1.9.84-.12,1.69-.22,2.55-.31h0a113.65,113.65,0,0,1,18.9.16l4.82.3h.15l1.15.05c.21,0,.43,0,.64,0l1.56.07,1.33.06h.14l1.53.06,5,.14,1.13,0,1.79,0,3.8.1,1.38,0h.19l3.8.12.91,0,1.31.05h0l.61,0,2.23.11c1.93.11,3.87.25,5.8.41l1.22.11,1,.09.43,0,.36,0,.9.09,1.91.22.65.08.85.12.52.07.52.08.92.13h.07l.85.14s0,0,0,0l.2,0h0l1,.17h.06l.12,0,.08,0,.77.14c2.42.45,4.82,1,7.18,1.69a49.61,49.61,0,0,1,12.6,5.51A70,70,0,0,1,280.66,220a92.56,92.56,0,0,1,6.56,7.7c0,.16,0,.33,0,.49,0,.45,0,.89,0,1.34C287.22,246.79,282.12,263.54,277.82,280.22Z" transform="translate(-51.01 -26.14)" style="fill:#a595fa"/><path d="M235.67,212c-4.62,3.53-10,7.09-15.34,8.79a27,27,0,0,1-3.62.9,11.52,11.52,0,0,1-3,.24,12.76,12.76,0,0,1-5.52-1.31c-4.74-2.52-7.54-7.49-9.55-12.63a66.31,66.31,0,0,1-2.85-9.51l5,.3c11.45.64,22.93.4,34.36,1.39,4.07.35,8.26.84,12.41,1.62A147.39,147.39,0,0,1,235.67,212Z" transform="translate(-51.01 -26.14)" style="fill:#a595fa"/><path d="M224.87,179.24h0c-7.15-1.16-12.12-7.53-11.05-14.15l2.84-17.45c1.07-6.62,7.8-11.09,15-9.93h0c7.16,1.16,12.13,7.53,11,14.15l-2.83,17.46C238.75,175.94,232,180.41,224.87,179.24Z" transform="translate(-51.01 -26.14)" style="fill:#f3725f"/><path d="M247.19,163.81a4.7,4.7,0,1,1-3.88-5.39A4.69,4.69,0,0,1,247.19,163.81Z" transform="translate(-51.01 -26.14)" style="fill:#f3725f"/><path d="M217.63,158.58a4.7,4.7,0,1,1-3.89-5.39A4.7,4.7,0,0,1,217.63,158.58Z" transform="translate(-51.01 -26.14)" style="fill:#f3725f"/><path d="M214.86,264.11a62.71,62.71,0,0,0,0-12.63c-3.7-45.65-51.7-60.49-72.41-95.23-8-11.65-16.53-22.89-24.73-34.38l-4.49,1.44Q105.06,126,97,128.75q7.38,27.54,12.28,55.7C132,213.08,187.24,275.32,214.86,264.11Z" transform="translate(-51.01 -26.14)" style="fill:#a595fa"/><path d="M95,84.21c2.48-1,6,10.15,6,10.15S99.94,90.13,99.22,86c-.63-3.58-1-7.06-.19-7.56,2.76-1.7,6.7,15.21,6.7,15.21s-3.83-18.51-.29-18.78,5.24,18.48,5.24,18.48-.52-17.74,2.54-17.44,2.85,23.19,2.85,23.19,7.43-8.88,9.34-7.48c3.22,2.36-11.79,21.89-11.79,21.89l-13.37,1.91S92.48,85.19,95,84.21Z" transform="translate(-51.01 -26.14)" style="fill:#f3725f"/><path d="M106,107.61a11,11,0,0,1,1.29-11.28c.84-1-.63-2.53-1.48-1.48A13,13,0,0,0,104,108.16c.51,1.23,2.54.69,2-.55Z" transform="translate(-51.01 -26.14)" style="fill:#d6594c"/><polygon points="49.24 89.32 53.38 102.17 67.34 97.09 61.85 84.64 49.24 89.32" style="fill:#f3725f"/><path d="M263.56,255.24a62.74,62.74,0,0,1-3.69-12.07c-9.86-44.73,31.67-73,41.27-112.3,4.22-13.47,9.09-26.73,13.55-40.12,1.57,0,3.14,0,4.71.06,5.72.1,11.44.25,17.16.42.68,19,2.19,38,4.6,56.85C327.85,182.13,293.26,257.85,263.56,255.24Z" transform="translate(-51.01 -26.14)" style="fill:#a595fa"/><path d="M325.38,48.07c-2.67-.21-2.79,11.48-2.79,11.48s-.8-15.25-2.79-15.77c-3.12-.81-1.94,16.5-1.94,16.5s-1.77-18.82-5.23-18,.41,19.21.41,19.21-4.7-17.11-7.54-15.93,4.09,23,4.09,23-9.72-6.3-11.13-4.41c-2.38,3.2,17.7,17.46,17.7,17.46l13.33-2.09S328,48.28,325.38,48.07Z" transform="translate(-51.01 -26.14)" style="fill:#f3725f"/><path d="M323.8,73.65a13,13,0,0,0-5.62-12.21c-1.13-.75-2.18,1.07-1.06,1.81a11,11,0,0,1,4.58,10.4c-.13,1.34,2,1.33,2.1,0Z" transform="translate(-51.01 -26.14)" style="fill:#d6594c"/><polygon points="278.49 53.35 278.3 66.85 263.47 66.1 265.06 52.58 278.49 53.35" style="fill:#f3725f"/><line x1="101.04" y1="324.25" x2="206.13" y2="330.13" style="fill:none;stroke:#241624;stroke-linecap:round;stroke-linejoin:round;stroke-width:1.61871px"/><path d="M240.27,165.93a21.55,21.55,0,0,1-.18-17.45c-10.34,2.67-22.28-1.07-30.21-8.24a39.19,39.19,0,0,1-8.47-11.38c-5-9.91-6.25-22.57,0-31.76a17.1,17.1,0,0,1,9.46-7.16c3.91-1,8.44-.07,11.15,2.93a13.61,13.61,0,0,1,2.39,4c3.2,7.81,2.12,16.61,1.44,25-.25,3.11-.08,6.93,2.68,8.38,3.64,1.92,7.32-.19,11.1,1.42a10,10,0,0,1,5.25,6.1,20.64,20.64,0,0,1,.73,8.21C245.08,152.84,242.63,159.53,240.27,165.93Z" transform="translate(-51.01 -26.14)" style="fill:#241624"/><path d="M221.08,159.37a10.54,10.54,0,0,0-.31,1.17c-.82,4.07,1.08,7.88,4.22,8.51s6.36-2.16,7.17-6.23a8.55,8.55,0,0,0,.16-1.21Z" transform="translate(-51.01 -26.14)" style="fill:#fff8f3"/><path d="M150.54,168.34c-13.71,15-6.45,34,6.88,46.32A66,66,0,0,0,181,228.82c9.67,3.21,18.11,1.72,27.32-2.4,10.47-4.68,20.72-11.46,32.71-10.36,4.76.44,9.59,2.11,14.21.87s8.16-7.48,4.74-10.82" transform="translate(-51.01 -26.14)" style="fill:none;stroke:#241624;stroke-linecap:round;stroke-linejoin:round;stroke-width:1.61871px"/><path d="M283.28,255.21c-16,.59-37.12,10.52-46.33,23.59-6,8.54-6.72,20.35-14.08,27.75-8.9,9-23.41,7.81-36,6.55s-27.56-.91-34.81,9.43" transform="translate(-51.01 -26.14)" style="fill:none;stroke:#241624;stroke-linecap:round;stroke-linejoin:round;stroke-width:1.61871px"/><path d="M308.68,107.39c12.24,8.91,17.14,28.34,14,43.14-2.35,11.08-7.68,20.17-16.72,27s-20.68,9.21-30.76,4.05" transform="translate(-51.01 -26.14)" style="fill:none;stroke:#241624;stroke-linecap:round;stroke-linejoin:round;stroke-width:1.61871px"/><path d="M237.42,372.3s3,26.17,22.12,29.94" transform="translate(-51.01 -26.14)" style="fill:none;stroke:#241624;stroke-linecap:round;stroke-linejoin:round;stroke-width:1.61871px"/><path d="M154.6,393.61s17.53-6.21,23.2-24.28" transform="translate(-51.01 -26.14)" style="fill:none;stroke:#241624;stroke-linecap:round;stroke-linejoin:round;stroke-width:1.61871px"/><path d="M196.14,369.6s-4.31,21.85,7,29.13" transform="translate(-51.01 -26.14)" style="fill:none;stroke:#241624;stroke-linecap:round;stroke-linejoin:round;stroke-width:1.61871px"/><line x1="151.34" y1="351.82" x2="153.5" y2="379.61" style="fill:none;stroke:#241624;stroke-linecap:round;stroke-linejoin:round;stroke-width:1.61871px"/><path d="M412.14,301.46a95.37,95.37,0,0,0-.29-49.74c-4.49-16.15-13.26-31.26-15.2-47.87-1.11-9.54,12.82-21.46,11.52-30.9-.69-.16-2.11-.43-2.57-1.24-.57-1-11-.58-15.46-.77-4.86-.44-7.83-1.06-12.47.31-5.35,1.6-10.25,5.9-10.56,11.26-.22,3.85,1.86,7.42,3.34,11s2.3,8-.13,11.05c-2.14,2.72-6.06,3.43-9.61,3.64a66.06,66.06,0,0,1-14.8-.75c-3.5-.57-7-1.43-10.53-1.43s-7.3,1-9.63,3.58-2.7,6.89-.12,9.23c-4.69-.91-7.32.75-11.56,2.88a48.44,48.44,0,0,0-11.26,8.44c-6.17,5.85-11.92,12.52-14.25,20.53a29,29,0,0,0,7.23,28,32.15,32.15,0,0,0,28.8,8.53c-.77,6.68,3,13,8,17.66s11.6,7.56,18.16,10c10.05,3.68,20.69,6.36,31.45,6s21.68-4.17,28.93-11.78c1.33-1.39,2.58-3.06,2.52-4.94A3.47,3.47,0,0,0,412.14,301.46Z" transform="translate(-51.01 -26.14)" style="fill:#241624"/><path d="M518.62,231.08c-3.77-7.44-10.66-12.94-17.8-17.54a48.23,48.23,0,0,0-12.63-6.22c-4.55-1.31-7.45-2.45-11.89-.7,2.1-2.77.95-7-1.82-9s-6.63-2.39-10.13-1.74-6.75,2.14-10.08,3.35a66.13,66.13,0,0,1-14.41,3.47c-3.53.44-7.51.47-10.12-1.8-3-2.57-3-7-2.17-10.84s2.19-7.69,1.25-11.43c-2-7.94-11.77-9.85-18.75-9.09-3.8.42-7.64.94-11.42,1.39-1.92.23-3.86.42-5.78.69-.82.11-2.31.08-3,.6-1.08.81,13.07,1,11.75,1.35-.85.21-1.83,0-2,1.07a13.74,13.74,0,0,0,.16,3,111.11,111.11,0,0,0,1.59,11.64c.94,5.13,2.4,10.54,2.4,15.78,1.16,16.68-4.66,33.15-6.09,49.85a95.34,95.34,0,0,0,8.9,48.94,3.48,3.48,0,0,0-1,2.86c.29,1.86,1.83,3.27,3.38,4.39,8.54,6.14,20,7.83,30.62,6.24s20.61-6.2,29.81-11.68c6-3.57,11.87-7.63,16-13.14s6.62-12.41,4.63-18.83A32.17,32.17,0,0,0,516.68,260,29,29,0,0,0,518.62,231.08Z" transform="translate(-51.01 -26.14)" style="fill:#241624"/><path d="M346.48,142.71c2.07,1.26-4.06,9.9-4.06,9.9s8.7-10.76,10.43-10.08c2.73,1.06-7.36,13.14-7.36,13.14s11.31-12.87,13.44-10.46-10.52,13.88-10.52,13.88,12.55-10.05,14-7.68-15.24,14.71-15.24,14.71,10.48.54,10.51,2.69c0,3.61-22.28,3.39-22.28,3.39l-8.67-8.63S344.41,141.45,346.48,142.71Z" transform="translate(-51.01 -26.14)" style="fill:#f3725f"/><path d="M335.62,163.35a9.9,9.9,0,0,1,8.93-5.1c1.22,0,1.22-1.85,0-1.9a11.83,11.83,0,0,0-10.57,6,1,1,0,0,0,1.64,1Z" transform="translate(-51.01 -26.14)" style="fill:#d6594c"/><polygon points="275.73 137.44 268.69 147.44 279.97 154.78 286 144.01 275.73 137.44" style="fill:#f3725f"/><path d="M450.32,273.09A28.73,28.73,0,0,0,452,259.28a23.33,23.33,0,0,0-3.27-8.84A35,35,0,0,0,437,239.3a54.8,54.8,0,0,0-10.26-4.9q-.76-.28-1.53-.54-4.05-1.34-8.21-2.28a90.79,90.79,0,0,0-37.89-.43c-4.54.91-10.88,4.49-15.23,6.11-7.19,2.68-11.45,5.1-15.89,11.15a39,39,0,0,0-7,16.72,30.27,30.27,0,0,0-.26,8.33c.05.51.12,1,.2,1.5a1.94,1.94,0,0,1,1.43.81,70.21,70.21,0,0,1,10,19.26c.12.34.22.69.33,1a1.67,1.67,0,0,1,.53.56c4.18,7.34,6.2,15.2,7.24,23.31a165.41,165.41,0,0,1,4.26,26.12,2.19,2.19,0,0,1,.14.76c0,.28,0,.56,0,.84.46,5.5.75,11,1,16.52l.24,0a228.07,228.07,0,0,0,59.5-2.2c3.81-.64,7.73-1.44,10.93-3.66,7-4.89,8.2-14.91,6.71-23.57-.09-.52-.19-1-.3-1.55-1.92-9-5.85-17.75-5.24-26.92C438.38,294.52,446.53,284.06,450.32,273.09Z" transform="translate(-51.01 -26.14)" style="fill:#eaae4e"/><path d="M419,232.85c-8.17-4.53-13.07-24.63-11.39-33.94l-16.17,10c.21,6.48-3.6,11.08-7.11,16.49-1.83,2.82-4,5.75-7.21,6.68,4.62,6.28,12.61,9.42,20.32,9.62S414.08,238.89,419,232.85Z" transform="translate(-51.01 -26.14)" style="fill:#f3725f"/><path d="M397.86,222.16c6.6-.92,8.95-7.28,9.81-13.47a33.39,33.39,0,0,1-.06-9.78l-16.17,10a17.11,17.11,0,0,1-2.13,8.59C391.13,220.57,393.89,222.71,397.86,222.16Z" transform="translate(-51.01 -26.14)" style="fill:#241624"/><path d="M393,459.42c1.81-36.25,3.05-65.85,2.67-72.5l-30.36-23.13c-11.85,14.1-16,52.46-16.68,95.63Z" transform="translate(-51.01 -26.14)" style="fill:#241624"/><path d="M447.93,459.42c-.48-39.51-3.48-76.61-11.66-99.23l-38.56,20.15c-.12,7.8,2,40.19,4.73,79.08Z" transform="translate(-51.01 -26.14)" style="fill:#241624"/><path d="M365.12,360.86l71.3-2.52s9.16,36.64,9.82,57.25l-45.55,11.82h-6.31L351.12,411.8S355.5,372.63,365.12,360.86Z" transform="translate(-51.01 -26.14)" style="fill:#241624"/><path d="M358.14,292.29l-1.42,51.5a14.73,14.73,0,0,0,7.06,13l5,3,9-6.76-5.66-44.92Z" transform="translate(-51.01 -26.14)" style="fill:#eaae4e"/><path d="M435.44,363.56H367.28a3.52,3.52,0,0,1-3.49-3.54h0a3.53,3.53,0,0,1,3.49-3.55h68.16a3.53,3.53,0,0,1,3.49,3.55h0A3.52,3.52,0,0,1,435.44,363.56Z" transform="translate(-51.01 -26.14)" style="fill:#241624"/><path d="M398.3,215h0c-7.69,0-14-5.66-14-12.58V184.2c0-6.92,6.29-12.59,14-12.59h0c7.68,0,14,5.67,14,12.59v18.25C412.27,209.37,406,215,398.3,215Z" transform="translate(-51.01 -26.14)" style="fill:#f3725f"/><path d="M420.39,197.79a5.41,5.41,0,1,1-5.39-4.85A5.14,5.14,0,0,1,420.39,197.79Z" transform="translate(-51.01 -26.14)" style="fill:#f3725f"/><path d="M388.14,197.41a5.41,5.41,0,1,1-5.39-4.85A5.14,5.14,0,0,1,388.14,197.41Z" transform="translate(-51.01 -26.14)" style="fill:#f3725f"/><path d="M385.29,422s13.58,10.68,28,0" transform="translate(-51.01 -26.14)" style="fill:none;stroke:#ccc;stroke-linecap:round;stroke-linejoin:round;stroke-width:0.763338px"/><path d="M409,303.37a44.67,44.67,0,0,1-24.2,24.54c-.66.27-.95-.82-.29-1.1A43.36,43.36,0,0,0,408,303.07c.27-.67,1.35-.38,1.08.3Z" transform="translate(-51.01 -26.14)" style="fill:#241624"/><path d="M370.56,248.71l-1.24-6.45a1.83,1.83,0,0,0-2.14-1.46l-8.33,1.66a1.85,1.85,0,0,0-1.44,2.17l1.24,6.45a1.83,1.83,0,0,0,2.14,1.46l8.33-1.66A1.85,1.85,0,0,0,370.56,248.71Z" transform="translate(-51.01 -26.14)" style="fill:#eaae4e"/><path d="M339.46,181.07l-31.4,38.06,55.49,23.67.44.19a18.71,18.71,0,0,1,9.27,25.48,20.36,20.36,0,0,1-26.54,9.17L275.1,245l-2.69-1.22a16.57,16.57,0,0,1-3.86-2.48,15.68,15.68,0,0,1-1.23-22.75l50.4-50.23Z" transform="translate(-51.01 -26.14)" style="fill:#eaae4e"/><path d="M335.66,267.16S355.88,295,358.3,308.63" transform="translate(-51.01 -26.14)" style="fill:none;stroke:#241624;stroke-linecap:round;stroke-linejoin:round;stroke-width:1.52668px"/><path d="M418,238.25c4.5-1.25,7.19-1.91,11-1.75,41.47,1.74,51.22,43.75,83.41,61.28,10.83,6.81,21.32,14.16,32,21.17-.38,1.37-.76,2.75-1.15,4.12q-2.12,7.47-4.35,14.93-25.2-5.72-50.87-9.16C461.32,309.28,408.82,263.66,418,238.25Z" transform="translate(-51.01 -26.14)" style="fill:#eaae4e"/><path d="M579.33,338.21c.81-2.28-9.41-5.1-9.41-5.1s13.55,2.83,14.46,1.22c1.44-2.56-14-5.53-14-5.53s16.89,2.81,17-.4-16.92-4.09-16.92-4.09,16.08-.16,15.71-2.92-21.11-1.75-21.11-1.75,7.78-7.05,6.44-8.73c-2.25-2.83-19.4,11.45-19.4,11.45l-1.26,12.17S578.53,340.5,579.33,338.21Z" transform="translate(-51.01 -26.14)" style="fill:#f3725f"/><path d="M557.28,330.89a11.83,11.83,0,0,0,12-2.09c.92-.8-.43-2.14-1.34-1.34a9.92,9.92,0,0,1-10.16,1.6c-1.15-.42-1.65,1.42-.51,1.83Z" transform="translate(-51.01 -26.14)" style="fill:#d6594c"/><polygon points="499.84 308.4 488.06 305.11 492.16 292.28 503.63 296.81 499.84 308.4" style="fill:#f3725f"/><path d="M462,261.1c-5.31,8.79-11.88,20.91-34,43.32" transform="translate(-51.01 -26.14)" style="fill:none;stroke:#241624;stroke-linecap:round;stroke-linejoin:round;stroke-width:1.52668px"/><path d="M380.08,178.29a10.28,10.28,0,0,0,3.63,7.2,17.9,17.9,0,0,0,7.11,3.54,15.62,15.62,0,0,0,5.71.69,8,8,0,0,0,5.17-2.42,6.11,6.11,0,0,0,1.46-5.63c.65,2.19,1.09,4.23.45,6.42a12.37,12.37,0,0,0,7.23-3.9,13.85,13.85,0,0,0,3.48-7.79,4.62,4.62,0,0,0-.49-3c-.77-1.17-2.26-1.44-3.59-1.61A112.72,112.72,0,0,0,390,171a15.69,15.69,0,0,0-6.42,1.38,9.48,9.48,0,0,0-4.42,5.09" transform="translate(-51.01 -26.14)" style="fill:#241624"/><path d="M391.14,200.81a6.16,6.16,0,0,0-.05.75,6.83,6.83,0,0,0,13.65,0,6.16,6.16,0,0,0-.05-.75Z" transform="translate(-51.01 -26.14)" style="fill:#fff"/><path d="M384.41,209.59c0,4.32-1.88,7.82-4.19,7.82s-4.2-3.5-4.2-7.82,1.88-7.83,4.2-7.83S384.41,205.27,384.41,209.59Z" transform="translate(-51.01 -26.14)" style="fill:none;stroke:#fff;stroke-miterlimit:10;stroke-width:0.763338px"/><path d="M419.91,210.07c0,4.32-1.88,7.82-4.2,7.82s-4.2-3.5-4.2-7.82,1.88-7.83,4.2-7.83S419.91,205.74,419.91,210.07Z" transform="translate(-51.01 -26.14)" style="fill:none;stroke:#fff;stroke-miterlimit:10;stroke-width:0.763338px"/><path d="M629.59,130.22c-2.07,1.26,4.06,9.91,4.06,9.91S625,129.37,623.22,130c-2.73,1.07,7.36,13.14,7.36,13.14s-11.31-12.87-13.44-10.45,10.52,13.87,10.52,13.87-12.56-10-14-7.68,15.24,14.72,15.24,14.72-10.48.54-10.51,2.68c0,3.61,22.28,3.4,22.28,3.4l8.67-8.63S631.66,129,629.59,130.22Z" transform="translate(-51.01 -26.14)" style="fill:#8a1807"/><path d="M642.09,149.91a11.82,11.82,0,0,0-10.57-6c-1.22,0-1.23,1.95,0,1.9a9.9,9.9,0,0,1,8.93,5.1,1,1,0,0,0,1.64-1Z" transform="translate(-51.01 -26.14)" style="fill:#d6594c"/><polygon points="598.32 124.95 605.37 134.95 594.08 142.29 588.05 131.53 598.32 124.95" style="fill:#8a1807"/><path d="M525.75,260.6a28.71,28.71,0,0,1-1.65-13.81,23.55,23.55,0,0,1,3.26-8.84,35.09,35.09,0,0,1,11.69-11.14,55.43,55.43,0,0,1,10.26-4.9c.51-.19,1-.36,1.53-.53q4-1.35,8.21-2.29a90.79,90.79,0,0,1,37.89-.43c4.54.91,10.88,4.49,15.23,6.11,7.19,2.68,11.45,5.1,15.89,11.15a39,39,0,0,1,7,16.72,30.27,30.27,0,0,1,.26,8.33c-.05.51-.12,1-.2,1.5a2,2,0,0,0-1.44.82,70.4,70.4,0,0,0-10,19.25c-.12.34-.22.69-.33,1a1.64,1.64,0,0,0-.53.55c-4.18,7.34-6.2,15.21-7.25,23.31a166.55,166.55,0,0,0-4.25,26.12,2,2,0,0,0-.14.76v.84c-.45,5.51-.74,11-.95,16.53l-.24,0a228.07,228.07,0,0,1-59.5-2.2c-3.81-.64-7.73-1.44-10.93-3.66-7-4.89-8.2-14.91-6.71-23.57.09-.52.19-1,.3-1.55,1.92-9,5.85-17.75,5.24-26.92C537.69,282,529.54,271.57,525.75,260.6Z" transform="translate(-51.01 -26.14)" style="fill:#fbc999"/><path d="M557.07,220.37c8.17-4.54,13.07-24.64,11.39-34l16.17,10c-.21,6.47,3.6,11.07,7.11,16.48,1.83,2.82,4,5.75,7.21,6.68-4.62,6.28-12.61,9.42-20.32,9.62S562,226.4,557.07,220.37Z" transform="translate(-51.01 -26.14)" style="fill:#8a1807"/><path d="M578.21,209.67c-6.6-.92-9-7.28-9.81-13.47a33.74,33.74,0,0,0,.06-9.78l16.17,10a17.1,17.1,0,0,0,2.13,8.58C584.93,208.08,582.18,210.22,578.21,209.67Z" transform="translate(-51.01 -26.14)" style="fill:#241624"/><path d="M617.93,279.8l1.42,51.5a14.73,14.73,0,0,1-7.06,13l-5,3-9-6.76L604,295.68Z" transform="translate(-51.01 -26.14)" style="fill:#fbc999"/><path d="M540.63,351.08h68.16a3.53,3.53,0,0,0,3.49-3.55h0a3.53,3.53,0,0,0-3.49-3.55H540.63a3.53,3.53,0,0,0-3.49,3.55h0A3.53,3.53,0,0,0,540.63,351.08Z" transform="translate(-51.01 -26.14)" style="fill:#241624"/><path d="M577.77,202.54h0c7.69,0,14-5.66,14-12.58V171.71c0-6.92-6.29-12.59-14-12.59h0c-7.69,0-14,5.67-14,12.59V190C563.79,196.88,570.08,202.54,577.77,202.54Z" transform="translate(-51.01 -26.14)" style="fill:#8a1807"/><path d="M555.68,185.3a5.41,5.41,0,1,0,5.39-4.85A5.14,5.14,0,0,0,555.68,185.3Z" transform="translate(-51.01 -26.14)" style="fill:#8a1807"/><path d="M587.93,184.92a5.41,5.41,0,1,0,5.39-4.85A5.14,5.14,0,0,0,587.93,184.92Z" transform="translate(-51.01 -26.14)" style="fill:#8a1807"/><path d="M554.81,278.78a66.64,66.64,0,0,0,36.1,36.62c1,.41,1.42-1.22.44-1.63a64.73,64.73,0,0,1-34.94-35.44c-.4-1-2-.55-1.6.45Z" transform="translate(-51.01 -26.14)" style="fill:#241624"/><path d="M605.51,236.22l1.24-6.45a1.83,1.83,0,0,1,2.14-1.46l8.33,1.66a1.86,1.86,0,0,1,1.44,2.17l-1.25,6.45a1.82,1.82,0,0,1-2.13,1.46l-8.34-1.66A1.85,1.85,0,0,1,605.51,236.22Z" transform="translate(-51.01 -26.14)" style="fill:#eaae4e"/><path d="M636.61,168.58,668,206.64l-55.49,23.67-.44.2A18.71,18.71,0,0,0,602.8,256a20.36,20.36,0,0,0,26.55,9.17L701,232.53l2.69-1.22a16.25,16.25,0,0,0,3.86-2.48,15.68,15.68,0,0,0,1.23-22.75l-50.4-50.23Z" transform="translate(-51.01 -26.14)" style="fill:#a83500"/><path d="M640.41,254.67s-20.23,27.86-22.64,41.47" transform="translate(-51.01 -26.14)" style="fill:none;stroke:#241624;stroke-linecap:round;stroke-linejoin:round;stroke-width:1.52668px"/><path d="M584,461.61c-2.15-46.77-3.62-85-3.16-93.55l36-29.86c14.06,18.21,19,67.7,19.8,123.41Z" transform="translate(-51.01 -26.14)" style="fill:#d6874c"/><path d="M518.9,461.61c.55-51,4.12-98.87,13.83-128.06l45.74,26c.14,10.07-2.31,51.86-5.61,102.05Z" transform="translate(-51.01 -26.14)" style="fill:#d6874c"/><path d="M617.13,334.43l-84.58-3.26S521.68,378.45,520.89,405l54,15.26h7.49l51.32-20.14S628.54,349.61,617.13,334.43Z" transform="translate(-51.01 -26.14)" style="fill:#d6874c"/><path d="M593.2,413.37s-16.11,13.79-33.26,0" transform="translate(-51.01 -26.14)" style="fill:none;stroke:#241624;stroke-linecap:round;stroke-linejoin:round;stroke-width:1.61871px"/><path d="M549.56,262.32a57.86,57.86,0,0,0,.72-11.68c-.77-42.45-44.41-59.15-61.59-92.56-6.72-11.27-14-22.2-20.92-33.33l-4.24,1.06q-7.72,1.95-15.41,4c3.49,17.29,6.24,34.75,8.14,52.28C475.66,210,523.29,271,549.56,262.32Z" transform="translate(-51.01 -26.14)" style="fill:#a83500"/><path d="M448.88,88.5c2.36-.76,5,9.77,5,9.77s-2.57-13.93-.89-14.82c2.65-1.4,5.32,14.48,5.32,14.48s-2.47-17.36.83-17.39S462.92,98,462.92,98s.55-16.44,3.37-16,1.29,21.64,1.29,21.64,7.41-7.76,9.1-6.35c2.84,2.38-12.22,19.52-12.22,19.52l-12.5.94S446.53,89.26,448.88,88.5Z" transform="translate(-51.01 -26.14)" style="fill:#8a1807"/><path d="M457.73,110.77a10.14,10.14,0,0,1,1.91-10.34c.85-.91-.52-2.29-1.37-1.37a12.08,12.08,0,0,0-2.42,12.22c.4,1.18,2.28.68,1.88-.51Z" transform="translate(-51.01 -26.14)" style="fill:#d6594c"/><polygon points="400.95 91.6 404.04 103.74 417.28 99.91 412.92 88.05 400.95 91.6" style="fill:#8a1807"/><path d="M584.93,188.32a6.16,6.16,0,0,1,.05.75,6.83,6.83,0,0,1-13.65,0,6.16,6.16,0,0,1,0-.75Z" transform="translate(-51.01 -26.14)" style="fill:#fff"/><line x1="481.25" y1="315.7" x2="572.85" y2="320.55" style="fill:none;stroke:#241624;stroke-linecap:round;stroke-linejoin:round;stroke-width:1.61871px"/><path d="M557.07,220.37s13.53,54.8,9.48,100.67l-42.89-7.29,8.09-14.3s1.14-5.74,2.16-11.87c.27-1.62-22.12-39.39-15.65-50.18S557.07,220.37,557.07,220.37Z" transform="translate(-51.01 -26.14)" style="fill:#a83500"/><path d="M597.75,217.4s-14.26,57.74-10,106.07L633,315.79l-8.53-15.06s-1.19-6.06-2.27-12.51c-.28-1.71,23.31-41.5,16.49-52.87S597.75,217.4,597.75,217.4Z" transform="translate(-51.01 -26.14)" style="fill:#a83500"/><ellipse cx="486.95" cy="266.44" rx="8.63" ry="8.77" style="fill:#a83500"/><path d="M629.14,293.38c0,4.85-2.77,8.77-6.2,8.77s-6.21-3.92-6.21-8.77,2.78-8.76,6.21-8.76S629.14,288.54,629.14,293.38Z" transform="translate(-51.01 -26.14)" style="fill:#a83500"/><path d="M540.92,231.47s-7,11.87,5.13,20.23c0,0-7,9.44,6.2,25.09" transform="translate(-51.01 -26.14)" style="fill:none;stroke:#241624;stroke-linecap:round;stroke-linejoin:round;stroke-width:1.52668px"/><path d="M611.75,232s7,11.87-5.13,20.23c0,0,7,9.44-6.2,25.09" transform="translate(-51.01 -26.14)" style="fill:none;stroke:#241624;stroke-linecap:round;stroke-linejoin:round;stroke-width:1.52668px"/><line x1="598.37" y1="136.81" x2="626.02" y2="164.46" style="fill:none;stroke:#241624;stroke-linecap:round;stroke-linejoin:round;stroke-width:1.52668px"/><path d="M460.53,129.22c1.62.27,19.42,45.59,19.42,45.59" transform="translate(-51.01 -26.14)" style="fill:none;stroke:#241624;stroke-linecap:round;stroke-linejoin:round;stroke-width:1.52668px"/><line x1="499.09" y1="261.72" x2="486.95" y2="275.21" style="fill:none;stroke:#241624;stroke-linecap:round;stroke-linejoin:round;stroke-width:1.52668px"/><line x1="557.9" y1="263.34" x2="569.77" y2="280.87" style="fill:none;stroke:#241624;stroke-linecap:round;stroke-linejoin:round;stroke-width:1.52668px"/><ellipse cx="517.16" cy="133.57" rx="15.11" ry="16.73" style="fill:#241624"/><ellipse cx="543.06" cy="134.11" rx="15.11" ry="16.73" style="fill:#241624"/><path d="M600,200.46c0,5.8-1.85,10.5-4.13,10.5s-4.13-4.7-4.13-10.5,1.85-10.5,4.13-10.5S600,194.66,600,200.46Z" transform="translate(-51.01 -26.14)" style="fill:none;stroke:#eaae4e;stroke-miterlimit:10;stroke-width:0.539571px"/><ellipse cx="509.26" cy="172.96" rx="4.13" ry="10.5" style="fill:none;stroke:#eaae4e;stroke-miterlimit:10;stroke-width:0.539571px"/><rect x="79.59" y="430.84" width="530.61" height="4.87" rx="2.43" style="fill:#241624"/><path d="M167.6,81.16a5.85,5.85,0,1,1-5.84-5.84A5.84,5.84,0,0,1,167.6,81.16Z" transform="translate(-51.01 -26.14)" style="fill:none;stroke:#2d1a14;stroke-linecap:round;stroke-linejoin:round;stroke-width:1.4604000000000001px"/><circle cx="31.89" cy="214.7" r="3.89" style="fill:none;stroke:#2d1a14;stroke-linecap:round;stroke-linejoin:round;stroke-width:1.4604000000000001px"/><circle cx="53.79" cy="240.5" r="2.43" style="fill:none;stroke:#2d1a14;stroke-linecap:round;stroke-linejoin:round;stroke-width:1.4604000000000001px"/><circle cx="218.82" cy="67.68" r="2.92" style="fill:none;stroke:#2d1a14;stroke-linecap:round;stroke-linejoin:round;stroke-width:1.4604000000000001px"/><circle cx="341" cy="59.41" r="5.35" style="fill:none;stroke:#2d1a14;stroke-linecap:round;stroke-linejoin:round;stroke-width:1.4604000000000001px"/><circle cx="352.69" cy="29.23" r="2.43" style="fill:none;stroke:#2d1a14;stroke-linecap:round;stroke-linejoin:round;stroke-width:1.4604000000000001px"/><circle cx="462.22" cy="96.89" r="1.95" style="fill:none;stroke:#2d1a14;stroke-linecap:round;stroke-linejoin:round;stroke-width:1.4604000000000001px"/><circle cx="621.89" cy="277.98" r="3.89" style="fill:none;stroke:#2d1a14;stroke-linecap:round;stroke-linejoin:round;stroke-width:1.4604000000000001px"/><path d="M712.81,272a2.92,2.92,0,1,1-2.92-2.92A2.92,2.92,0,0,1,712.81,272Z" transform="translate(-51.01 -26.14)" style="fill:none;stroke:#2d1a14;stroke-linecap:round;stroke-linejoin:round;stroke-width:1.4604000000000001px"/><circle cx="658.88" cy="364.63" r="4.87" style="fill:none;stroke:#2d1a14;stroke-linecap:round;stroke-linejoin:round;stroke-width:1.4604000000000001px"/><circle cx="449.56" cy="347.11" r="1.95" style="fill:none;stroke:#2d1a14;stroke-linecap:round;stroke-linejoin:round;stroke-width:1.4604000000000001px"/><circle cx="259.71" cy="327.63" r="3.89" style="fill:none;stroke:#2d1a14;stroke-linecap:round;stroke-linejoin:round;stroke-width:1.4604000000000001px"/><circle cx="240.24" cy="298.43" r="3.89" style="fill:none;stroke:#2d1a14;stroke-linecap:round;stroke-linejoin:round;stroke-width:1.4604000000000001px"/></g></svg>